<?xml version="1.0" encoding="utf-8"?>
<!-- Generator: Adobe Illustrator 19.0.0, SVG Export Plug-In . SVG Version: 6.00 Build 0)  -->
<svg version="1.1" id="Layer_1" xmlns="http://www.w3.org/2000/svg" xmlns:xlink="http://www.w3.org/1999/xlink" x="0px" y="0px"
	 viewBox="60 -168 291.9 377.5" style="enable-background:new 60 -168 291.9 377.5;" xml:space="preserve">
<style type="text/css">
	.st0{fill:#FEFEFE;}
	.st1{fill:#EB1A4C;}
	.st2{fill:#FEFDFD;}
	.st3{fill:#750F27;}
</style>
<g>
	<g>
		<path class="st0" d="M311.2-107.8c0,85.5,0,171,0,256.6c-70,0-140,0-210,0c0-85.5,0-171,0-256.6
			C171.2-107.8,241.2-107.8,311.2-107.8z M145.6,72.8c0.3,2.9,0.4,5.8,0.9,8.7c1.6,10.1,6.7,18.2,14.4,24.8
			c8,6.9,17.2,10.7,27.9,10.6c5-0.1,9.8-1,14.6-2.5c1.5-0.5,2.9-0.4,4.3,0.1c6.9,2.4,14,3.1,21.1,1.7c15.1-2.8,26-11.1,32.4-25
			c4.6-10,4.7-20.5,2.5-31.1c-2.4-11.6-7.8-21.6-15.9-30.3c-7.1-7.5-14.8-14.4-23.8-19.6c-12.4-7.2-24.8-7.1-37.2,0
			c-11.1,6.3-20.4,14.6-28.1,24.7C150.4,46.1,145.8,58.6,145.6,72.8z"/>
		<path class="st1" d="M145.6,72.8c0.2-14.1,4.8-26.7,13.2-37.9c7.7-10.1,17-18.4,28.1-24.7c12.4-7.1,24.8-7.1,37.2,0
			c9,5.2,16.7,12,23.8,19.6c8.1,8.6,13.5,18.7,15.9,30.3c2.2,10.6,2.1,21.1-2.5,31.1c-6.4,13.9-17.4,22.2-32.4,25
			c-7.2,1.3-14.2,0.7-21.1-1.7c-1.5-0.5-2.9-0.5-4.3-0.1c-4.7,1.5-9.6,2.4-14.6,2.5c-10.7,0.1-19.9-3.7-27.9-10.6
			c-7.6-6.6-12.7-14.7-14.4-24.8C146.1,78.6,145.9,75.7,145.6,72.8z M205.1,101.8c4,2.4,8.4,4,13.1,4.3c3.1,0.5,6.2,0.3,9.3-0.2
			c12.4-2,23.4-11.9,26-24.2c2.7-12.4,0.6-24.2-6-34.9c-7.8-12.6-18.6-22-31.5-29.2c-3.5-1.9-7.3-2.7-11.3-2.5
			c-5,0.2-9.4,2.1-13.6,4.6c-7.1,4.2-13.3,9.5-18.9,15.4c-6.9,7.3-12,15.7-14.5,25.5c-2,7.7-2.5,15.4,0,23.1
			c4,12.4,15.3,21.4,28.3,22.6c2.2,0.2,4.4,0,6.6,0c0-0.1,0-0.3,0-0.4c-0.4-0.5-0.9-0.9-1.3-1.4c-10-10-14-22-12.7-36
			c1.4-14.4,14.8-26.3,29.9-24.1c10.3,1.5,17.6,6.7,21.5,16.4c3.2,7.9,3,15.9,0.8,24c-1.6,5.9-4.1,11.2-8.2,15.8
			c-2.4-0.6-4.7-1.1-7.1-1.7c-1.3-0.3-2.5-0.9-3.4-1.9c0.3-0.3,0.6-0.7,0.8-1c7.3-8.3,10.6-17.8,8-28.9c-1.7-7.6-8-12.5-15.5-12.6
			c-7.6-0.1-14.2,5-16.2,12.4c-1.1,4.1-0.9,8.2-0.2,12.4C191,89.2,196.6,96.6,205.1,101.8z"/>
		<path class="st2" d="M222.7,100.5c4.1-4.5,6.6-9.9,8.2-15.8c2.2-8.1,2.3-16.1-0.8-24c-3.9-9.7-11.2-14.9-21.5-16.4
			c-15.1-2.2-28.6,9.7-29.9,24.1c-1.3,14,2.8,26,12.7,36c0.4,0.4,0.9,0.9,1.3,1.4c0,0.1,0,0.3,0,0.4c-2.2,0-4.4,0.2-6.6,0
			c-13-1.1-24.3-10.1-28.3-22.6c-2.5-7.7-2-15.4,0-23.1c2.5-9.8,7.6-18.2,14.5-25.5c5.6-6,11.8-11.2,18.9-15.4
			c4.2-2.5,8.6-4.4,13.6-4.6c4-0.2,7.8,0.6,11.3,2.5c12.8,7.2,23.7,16.6,31.5,29.2c6.6,10.7,8.7,22.5,6,34.9
			c-2.7,12.3-13.6,22.2-26,24.2c-3.1,0.5-6.2,0.7-9.3,0.2C219.7,104.2,221.2,102.3,222.7,100.5z"/>
		<path class="st2" d="M205.1,101.8c-8.6-5.2-14.2-12.5-15.8-22.6c-0.7-4.1-0.9-8.3,0.2-12.4c1.9-7.4,8.5-12.4,16.2-12.4
			c7.5,0.1,13.8,5,15.5,12.6c2.5,11-0.7,20.5-8,28.9c-0.3,0.3-0.6,0.7-0.8,1c-0.4,0.3-0.8,0.6-1.1,0.9
			C209.2,99.2,207.6,101.1,205.1,101.8z"/>
		<path class="st3" d="M205.1,101.8c2.4-0.7,4.1-2.5,6-4c0.4-0.3,0.8-0.6,1.1-0.9c0.9,1,2,1.6,3.4,1.9c2.4,0.5,4.7,1.1,7.1,1.7
			c-1.5,1.8-3,3.7-4.5,5.5C213.5,105.7,209.2,104.2,205.1,101.8z"/>
	</g>
</g>
</svg>
